<svg version="1.1" xmlns="http://www.w3.org/2000/svg" viewBox="0 0 412.645958029309 257.8147925966575" width="412.645958029309" height="257.8147925966575">
  <!-- svg-source:excalidraw -->
  
  <defs>
    <style class="style-fonts">
      @font-face {
        font-family: "Virgil";
        src: url("https://excalidraw.com/Virgil.woff2");
      }
      @font-face {
        font-family: "Cascadia";
        src: url("https://excalidraw.com/Cascadia.woff2");
      }
    </style>
  </defs>
  <g stroke-linecap="round"><g stroke-opacity="0.3" fill-opacity="0.3" transform="translate(290.798623464716 123.45039255273377) rotate(0 0.4595635800533273 27.75713452237335)"><path d="M0.96 0.88 C1.07 10.14, 0.33 45.66, -0.05 54.64" stroke="#000000" stroke-width="1.5" fill="none" stroke-dasharray="8 9"></path></g></g><mask></mask><g stroke-opacity="0.2" fill-opacity="0.2" stroke-linecap="round" transform="translate(327.27734375 10) rotate(0 12.287109375 12.287109375)"><path d="M7.86 0.32 C10.39 -0.6, 14.79 -0.28, 17.31 0.71 C19.83 1.71, 21.69 3.95, 22.99 6.29 C24.29 8.63, 25.71 12.35, 25.12 14.76 C24.52 17.17, 21.46 19.01, 19.43 20.77 C17.4 22.52, 15.43 24.95, 12.95 25.29 C10.47 25.62, 6.6 24.42, 4.55 22.78 C2.51 21.13, 1.26 18.2, 0.66 15.4 C0.06 12.6, -0.93 8.68, 0.95 5.99 C2.82 3.3, 9.56 0.1, 11.91 -0.73 C14.26 -1.56, 15.07 0.58, 15.03 0.99 M9.08 0.02 C11.47 -0.85, 16.02 -0.78, 18.23 0.35 C20.45 1.47, 21.69 3.88, 22.38 6.78 C23.08 9.68, 22.86 14.92, 22.41 17.75 C21.96 20.58, 21.85 22.83, 19.68 23.75 C17.51 24.68, 12.2 23.84, 9.38 23.3 C6.56 22.77, 4.21 22.3, 2.74 20.54 C1.27 18.77, 0.52 15.55, 0.55 12.7 C0.57 9.85, 1.17 5.52, 2.88 3.44 C4.6 1.35, 9.78 0.51, 10.82 0.19 C11.86 -0.12, 9.28 1.51, 9.11 1.55" stroke="#000000" stroke-width="1" fill="none"></path></g><g stroke-opacity="0.2" fill-opacity="0.2" stroke-linecap="round" transform="translate(271.84765625 89.8125) rotate(0 15.5 15)"><path d="M2.4 7.39 C2.4 7.39, 2.4 7.39, 2.4 7.39 M2.4 7.39 C2.4 7.39, 2.4 7.39, 2.4 7.39 M0.19 16.21 C2.52 11.04, 7.45 8.67, 12.33 1.98 M0.82 14.83 C2.94 13.37, 4.92 10.46, 12.61 2.04 M3.72 16.85 C7.9 14.17, 8.14 12.6, 16.76 3.32 M3.71 18.79 C7.57 12.89, 13.53 7.77, 17.89 1.77 M6.24 20.06 C11.72 16.23, 15.7 8.52, 24.01 0.84 M4.9 21.1 C10.52 15.11, 16.54 9.16, 23.54 2.11 M7.16 27.02 C12.93 16.59, 23.34 9.61, 27.24 6.59 M7.23 27.1 C13.18 19.53, 21.83 11.33, 24.66 4.82 M8.79 30.41 C15.29 20.91, 20.57 16.82, 30.41 6.3 M9.68 28.68 C15.1 21.74, 22.3 16.24, 28.37 7.14 M12.84 29.33 C20.01 24.53, 27.29 16.78, 30.82 11.67 M14.38 29.41 C18.16 26.39, 21.54 22.56, 30.86 10.65 M21.19 29.02 C25.85 24.27, 26.89 19.81, 30.42 15.15 M21.74 28.95 C24.98 23.18, 30.5 19.63, 32.67 16.44" stroke="#868e96" stroke-width="0.5" fill="none"></path><path d="M11.28 1.42 C14.41 0.53, 19.22 0.3, 22.33 1.67 C25.44 3.03, 28.53 6.85, 29.96 9.61 C31.38 12.38, 32 15.21, 30.9 18.26 C29.79 21.32, 26.05 25.99, 23.33 27.94 C20.61 29.89, 17.58 30.3, 14.58 29.96 C11.58 29.61, 7.6 28.28, 5.31 25.86 C3.03 23.43, 1.3 18.55, 0.86 15.42 C0.42 12.29, 0.8 9.46, 2.67 7.08 C4.54 4.69, 10.07 2.15, 12.05 1.12 C14.04 0.09, 14.34 0.86, 14.59 0.89 M16.36 0 C19.27 -0.07, 22.81 0.82, 25.04 2.8 C27.28 4.79, 28.98 8.32, 29.77 11.92 C30.57 15.53, 31.31 21.7, 29.8 24.46 C28.29 27.21, 24.33 27.79, 20.72 28.46 C17.1 29.13, 11.26 29.51, 8.11 28.46 C4.95 27.41, 3.03 24.97, 1.79 22.15 C0.56 19.32, 0.11 14.59, 0.69 11.52 C1.27 8.45, 2.64 5.79, 5.28 3.72 C7.92 1.66, 14.47 -0.25, 16.53 -0.88 C18.58 -1.51, 17.8 -0.45, 17.62 -0.07" stroke="#495057" stroke-width="1" fill="none"></path></g><g stroke-linecap="round" transform="translate(64.615234375 11.568359375) rotate(0 12.287109375 12.287109375)"><path d="M11.88 0.15 C14.5 -0.14, 17.98 1.85, 20.14 3.3 C22.29 4.75, 24.44 6.3, 24.81 8.84 C25.17 11.38, 23.51 16.07, 22.31 18.55 C21.11 21.03, 19.75 22.74, 17.61 23.72 C15.47 24.69, 11.96 25.34, 9.47 24.42 C6.98 23.5, 4.3 20.34, 2.69 18.19 C1.08 16.03, -0.27 13.84, -0.18 11.49 C-0.08 9.13, 1.03 5.89, 3.26 4.06 C5.49 2.23, 11.46 1.21, 13.22 0.52 C14.98 -0.17, 13.89 -0.24, 13.81 -0.09 M7.47 -0.84 C9.66 -1.97, 13.07 -1.95, 15.93 -0.51 C18.8 0.92, 23.12 5.35, 24.66 7.78 C26.2 10.21, 26.19 11.74, 25.18 14.08 C24.17 16.42, 20.8 20, 18.58 21.84 C16.37 23.67, 14.28 25.18, 11.88 25.1 C9.47 25.03, 6.3 23.15, 4.16 21.41 C2.01 19.67, -0.63 17.43, -1 14.65 C-1.37 11.86, 0.15 7.11, 1.94 4.7 C3.74 2.28, 8.8 0.82, 9.77 0.14 C10.74 -0.55, 7.76 0.12, 7.77 0.6" stroke="#000000" stroke-width="1" fill="none"></path></g><g stroke-linecap="round" transform="translate(10 97.90234375) rotate(0 12.287109375 12.287109375)"><path d="M9.5 0.65 C11.85 -0.02, 16.22 0.79, 18.41 1.76 C20.61 2.74, 21.62 4.06, 22.65 6.5 C23.68 8.95, 25.17 13.6, 24.59 16.43 C24.01 19.26, 21.36 21.99, 19.16 23.47 C16.97 24.95, 14.13 25.82, 11.41 25.32 C8.68 24.83, 4.55 22.66, 2.8 20.49 C1.05 18.32, 0.85 14.78, 0.93 12.3 C1.01 9.83, 1.58 7.59, 3.27 5.64 C4.96 3.68, 9.72 1.45, 11.08 0.58 C12.44 -0.29, 11.44 0.36, 11.42 0.39 M10.1 -1.11 C12.35 -0.99, 15.54 1.91, 18.08 3.81 C20.61 5.71, 24.6 8.16, 25.31 10.29 C26.03 12.42, 23.74 14.37, 22.35 16.61 C20.96 18.86, 19.14 22.47, 16.98 23.75 C14.82 25.03, 11.85 25.27, 9.39 24.32 C6.92 23.36, 3.6 20.25, 2.19 18.02 C0.78 15.78, 0.8 13.17, 0.92 10.91 C1.03 8.66, 1.19 6.47, 2.88 4.5 C4.58 2.52, 9.68 -0.38, 11.08 -0.96 C12.49 -1.53, 11.04 0.88, 11.33 1.03" stroke="#000000" stroke-width="1" fill="none"></path></g><g stroke-linecap="round" transform="translate(118.9765625 97.69140625) rotate(0 12.287109375 12.287109375)"><path d="M18.33 2.13 C20.69 2.99, 23.37 4.38, 24.17 6.78 C24.98 9.19, 23.93 13.91, 23.15 16.57 C22.38 19.22, 21.46 21.35, 19.53 22.74 C17.6 24.13, 14.16 25.37, 11.57 24.9 C8.98 24.43, 5.96 21.78, 3.99 19.9 C2.01 18.03, 0.08 16.02, -0.29 13.64 C-0.66 11.26, 0.03 7.78, 1.8 5.63 C3.56 3.49, 7.38 1.46, 10.32 0.79 C13.26 0.12, 17.84 1.23, 19.42 1.59 C21 1.96, 20.11 2.79, 19.82 3 M10.99 -1.48 C13.93 -1.26, 19.11 2.11, 21.49 3.86 C23.87 5.62, 25.21 6.68, 25.28 9.04 C25.34 11.4, 23.3 15.49, 21.89 18.04 C20.49 20.59, 19.09 23.33, 16.85 24.32 C14.62 25.32, 11.17 24.83, 8.47 24.01 C5.77 23.19, 2.03 21.85, 0.64 19.41 C-0.75 16.98, -0.65 12.2, 0.13 9.4 C0.92 6.59, 3.52 4.17, 5.36 2.57 C7.19 0.98, 9.89 0, 11.14 -0.18 C12.4 -0.35, 12.94 1.31, 12.89 1.53" stroke="#000000" stroke-width="1" fill="none"></path></g><g stroke-linecap="round"><g transform="translate(72.990234375 36.369140625) rotate(0 -21.832024101810475 32.48465962891464)"><path d="M-0.58 1.17 C-7.79 11.62, -36.86 52.25, -44.05 62.6 M1.32 0.74 C-5.98 11.41, -37.38 54.13, -44.98 64.23" stroke="#000000" stroke-width="1" fill="none"></path></g></g><mask></mask><g stroke-linecap="round"><g transform="translate(81.111328125 36.412109375) rotate(0 22.33664940107144 31.86237974647895)"><path d="M1.17 0.03 C8.57 10.91, 37.04 53.9, 44.35 64.72 M0.32 -1 C7.59 9.56, 36.1 52.13, 43.49 62.78" stroke="#000000" stroke-width="1" fill="none"></path></g></g><mask></mask><g stroke-linecap="round"><g transform="translate(139.162109375 121.392578125) rotate(0 15.548190479478762 29.6466974210972)"><path d="M0.03 0.17 C5.55 9.99, 27.05 50.41, 32.51 60.07 M-1.41 -0.78 C4.03 9.21, 26.12 48.44, 31.74 58.39" stroke="#000000" stroke-width="1" fill="none"></path></g></g><mask></mask><g stroke-linecap="round" transform="translate(164.693359375 180.609375) rotate(0 15.5 15)"><path d="M2.34 7.33 C2.34 7.33, 2.34 7.33, 2.34 7.33 M2.34 7.33 C2.34 7.33, 2.34 7.33, 2.34 7.33 M0.04 13.25 C3.43 10.85, 6.89 6.51, 13.31 0.97 M0.73 13.79 C5.78 10.07, 8.59 6.09, 11.81 1.73 M3.11 21.32 C8.8 12.76, 15.15 5.39, 17.49 4.17 M2.99 20.21 C7.02 14.08, 11.32 8.21, 17.42 1.92 M4.71 23.66 C11.44 16.01, 13.15 9.8, 21.15 2.86 M5.12 22.68 C9.15 17.57, 14.94 10.34, 21 3.92 M6.85 29.65 C9.09 22.65, 17.26 13.49, 27.05 6.75 M5.24 27.62 C12.56 18.62, 22.05 9.94, 24.73 4.53 M9.86 29.16 C15.23 21.23, 21.65 13.23, 27.67 8.48 M10.23 29.33 C16.81 20.66, 23.36 13.14, 29.37 7.93 M11.93 32.21 C18.86 22.99, 25.26 17.12, 32.62 10.41 M13.85 30.31 C18.87 24.19, 25.67 18.3, 31.79 9.11 M19.37 31.27 C19.67 30.64, 24.9 23.98, 31.74 16.29 M17.42 32.16 C23.68 24.68, 29.1 18.46, 32.49 14.15" stroke="#868e96" stroke-width="0.5" fill="none"></path><path d="M20.01 1.42 C23.08 2.44, 27.7 4.79, 29.66 7.57 C31.61 10.35, 32.3 15.03, 31.73 18.09 C31.16 21.14, 29.01 23.76, 26.25 25.9 C23.49 28.03, 18.75 30.66, 15.16 30.9 C11.57 31.15, 7.1 29.5, 4.71 27.36 C2.32 25.23, 1.19 21.46, 0.83 18.08 C0.47 14.71, 0.96 9.92, 2.55 7.09 C4.14 4.26, 7 1.96, 10.37 1.1 C13.74 0.25, 20.25 1.61, 22.76 1.94 C25.26 2.26, 25.57 2.95, 25.39 3.06 M9.07 0.84 C11.33 -1, 14.39 -0.84, 17.53 0.06 C20.66 0.96, 25.59 3.66, 27.88 6.25 C30.16 8.83, 31.54 12.31, 31.23 15.57 C30.91 18.83, 28.24 23.59, 25.98 25.82 C23.73 28.05, 20.63 28.67, 17.71 28.93 C14.79 29.18, 11.43 28.92, 8.45 27.36 C5.46 25.79, 0.9 22.3, -0.2 19.53 C-1.29 16.76, 0.68 13.71, 1.86 10.73 C3.03 7.75, 5.82 3.07, 6.87 1.65 C7.91 0.24, 7.67 2.02, 8.14 2.27" stroke="#495057" stroke-width="1" fill="none"></path></g><g stroke-linecap="round" transform="translate(277.435546875 181.705078125) rotate(0 15.5 15)"><path d="M9.32 2.23 C12.12 0.85, 17.23 0.73, 20.31 1.43 C23.39 2.12, 25.87 3.98, 27.78 6.39 C29.7 8.8, 31.92 12.52, 31.81 15.86 C31.69 19.21, 29.56 24.03, 27.1 26.46 C24.63 28.89, 20.53 30.3, 17 30.43 C13.48 30.55, 8.66 29.3, 5.93 27.22 C3.21 25.14, 1.39 21.09, 0.65 17.94 C-0.09 14.79, 0.06 11.3, 1.48 8.32 C2.91 5.33, 7.77 1.43, 9.2 0.05 C10.63 -1.33, 9.69 -0.49, 10.08 0.02 M19.91 0.91 C23.23 1.87, 27.28 4.68, 29.12 7.18 C30.97 9.67, 31.38 12.73, 30.99 15.87 C30.61 19.01, 29.43 23.5, 26.81 26.03 C24.19 28.57, 18.78 31.1, 15.26 31.08 C11.73 31.06, 8.16 27.93, 5.65 25.92 C3.14 23.9, 0.63 22.19, 0.19 19 C-0.25 15.81, 1.49 9.79, 3.03 6.79 C4.57 3.78, 6.54 1.86, 9.43 0.99 C12.32 0.11, 18.59 1.66, 20.38 1.52 C22.16 1.39, 20.48 0.32, 20.12 0.18" stroke="#000000" stroke-width="1" fill="none"></path></g><g transform="translate(287.59954833984375 186.705078125) rotate(0 5.33599853515625 9.600000000000023)"><text x="5.33599853515625" y="0" font-family="Virgil, Segoe UI Emoji" font-size="16px" fill="#000000" text-anchor="middle" style="white-space: pre;" direction="ltr" dominant-baseline="text-before-edge">a</text></g><g stroke-linecap="round"><g stroke-opacity="0.3" fill-opacity="0.3" transform="translate(200.18685394968134 196.26348211380173) rotate(0 35.38211133413108 1.8897052083819972)"><path d="M0.6 0.86 C12.47 1.51, 58.49 2.61, 70.16 2.92" stroke="#000000" stroke-width="1.5" fill="none" stroke-dasharray="8 9"></path></g></g><mask></mask><g stroke-linecap="round"><g stroke-opacity="0.2" fill-opacity="0.2" transform="translate(332.23587527474774 35.03619861324387) rotate(0 -16.70818802924066 27.238635875209297)"><path d="M0.86 0.05 C-4.64 9.19, -28.11 46.43, -33.94 55.45 M-0.15 -0.97 C-5.61 7.76, -28.57 44.26, -34.27 53.61" stroke="#000000" stroke-width="1" fill="none"></path></g></g><mask></mask><g stroke-linecap="round" transform="translate(349.9033203125 12.1904296875) rotate(0 12.287109375 12.287109375)"><path d="M12.14 0.34 C14.5 0.28, 18.31 2.19, 20.33 3.91 C22.36 5.63, 24 8.17, 24.3 10.66 C24.59 13.15, 23.5 16.7, 22.1 18.85 C20.7 21, 18.43 22.7, 15.89 23.59 C13.35 24.47, 9.3 24.97, 6.87 24.16 C4.43 23.36, 2.42 21.14, 1.27 18.73 C0.12 16.32, -0.58 12.48, -0.03 9.71 C0.51 6.95, 2.06 3.8, 4.54 2.13 C7.02 0.46, 12.84 -0.12, 14.86 -0.32 C16.88 -0.51, 16.65 0.78, 16.68 0.96 M12.23 0.45 C14.74 0.37, 17.98 1.46, 20.04 2.85 C22.09 4.24, 23.87 6.22, 24.57 8.8 C25.26 11.37, 25.12 15.78, 24.21 18.3 C23.3 20.81, 21.41 23, 19.11 23.9 C16.82 24.79, 13.39 24.54, 10.42 23.67 C7.44 22.81, 2.95 20.58, 1.28 18.71 C-0.38 16.84, 0.33 15.09, 0.45 12.44 C0.57 9.78, 0.21 4.76, 2.01 2.78 C3.82 0.79, 10 0.81, 11.29 0.51 C12.58 0.22, 9.85 0.78, 9.77 0.99" stroke="#000000" stroke-width="1" fill="none"></path></g><g stroke-linecap="round" transform="translate(294.4736328125 92.0029296875) rotate(0 15.5 15)"><path d="M1.26 9.04 C1.26 9.04, 1.26 9.04, 1.26 9.04 M1.26 9.04 C1.26 9.04, 1.26 9.04, 1.26 9.04 M2.43 14.04 C5.27 12.33, 6.4 7.79, 11.11 4.62 M2.26 14.91 C4.16 12.67, 5.76 9.57, 10.43 3.88 M3.25 20.76 C7.85 15.31, 10.93 13.2, 21.27 -0.44 M1.81 20.34 C8 14.13, 12.89 8.49, 19.4 0.06 M6.14 24.84 C12.28 17.92, 15.6 8.56, 23.03 4.17 M4.79 23.38 C9.71 18.04, 15.64 12.15, 22.04 3.57 M7.51 27.82 C11.77 21.48, 16.58 12.66, 24.65 5.65 M7.41 25.71 C13.72 19.35, 17.79 14.22, 26.81 5.32 M8.56 31.06 C14.95 23.99, 21.87 18.21, 29.58 7.77 M9.65 30.68 C13.18 25.44, 18.91 20.08, 28.5 6.32 M13.37 31.65 C20.48 23.06, 23.67 18.4, 28.89 11.65 M15.66 30.12 C17.78 26.94, 21.77 22.1, 30.77 12.76 M20.69 29.81 C20.19 26.69, 26.32 23.57, 33.54 16.83 M20.05 30.29 C21.86 27.25, 25.21 23.14, 32.89 15.66" stroke="#868e96" stroke-width="0.5" fill="none"></path><path d="M19.27 -0.06 C22.32 0.56, 26.46 3.18, 28.37 5.74 C30.28 8.31, 31.01 12.07, 30.71 15.33 C30.42 18.6, 28.91 23, 26.62 25.34 C24.32 27.69, 20.09 29.02, 16.94 29.39 C13.79 29.77, 10.26 29.32, 7.71 27.6 C5.17 25.87, 2.71 22.19, 1.68 19.04 C0.65 15.9, 0.46 11.7, 1.54 8.71 C2.62 5.73, 4.96 2.53, 8.17 1.14 C11.38 -0.24, 18.28 0.16, 20.8 0.4 C23.32 0.64, 23.39 2.27, 23.27 2.6 M19.14 1.2 C22.6 1.53, 26.52 3.75, 28.48 6.25 C30.44 8.76, 30.96 12.88, 30.88 16.25 C30.8 19.63, 30.12 24.05, 28 26.51 C25.89 28.96, 21.74 30.94, 18.19 30.97 C14.64 30.99, 9.77 28.47, 6.73 26.65 C3.69 24.82, 0.72 23.15, -0.05 20.03 C-0.81 16.9, 0.93 10.91, 2.15 7.91 C3.37 4.91, 4.44 3.49, 7.28 2.02 C10.12 0.55, 17.19 -0.64, 19.2 -0.93 C21.21 -1.22, 19.41 -0.12, 19.36 0.29" stroke="#495057" stroke-width="1" fill="none"></path></g><g stroke-linecap="round"><g transform="translate(354.86185183724774 37.22662830074387) rotate(0 -17.107267208408416 27.265544521458423)"><path d="M0.15 0.54 C-5.55 9.44, -28.19 44.83, -34 53.8 M-1.23 -0.22 C-7.01 8.74, -28.69 45.48, -34.37 54.76" stroke="#000000" stroke-width="1" fill="none"></path></g></g><mask></mask><g stroke-linecap="round"><g transform="translate(323.1279296875 118.5146484375) rotate(0 -4.806468569307981 33.69138204921967)"><path d="M-0.47 1.06 C0.73 6.37, 9.1 21.26, 6.42 32.01 C3.74 42.76, -12.73 59.94, -16.56 65.57 M1.48 0.57 C2.69 5.52, 8.67 19.15, 6.06 30.19 C3.45 41.23, -10.36 60.68, -14.18 66.81" stroke="#c92a2a" stroke-width="1" fill="none"></path></g><g transform="translate(323.1279296875 118.5146484375) rotate(0 -4.806468569307981 33.69138204921967)"><path d="M-15.91 66.24 L-12.96 51.38 L-0.83 60.61 L-15.71 68.42" stroke="none" stroke-width="0" fill="#c92a2a" fill-rule="evenodd"></path><path d="M-12.85 68.21 C-12.98 62.11, -13.38 58.61, -11.92 52.31 M-13.62 66.88 C-13.98 63.19, -12.33 59.81, -11.7 51.32 M-12.2 52.51 C-10.73 54.42, -6.67 54.16, -1.66 59.09 M-12.44 51.61 C-7.71 54.11, -3.64 56.7, -1.58 59.3 M-1.23 58.36 C-4.39 61.34, -7.93 62.27, -14.78 66.87 M-1.77 58.49 C-7.03 61.48, -11.86 65.38, -13.99 66.53 M-14.18 66.81 C-14.18 66.81, -14.18 66.81, -14.18 66.81 M-14.18 66.81 C-14.18 66.81, -14.18 66.81, -14.18 66.81" stroke="#c92a2a" stroke-width="1" fill="none"></path></g></g><mask></mask><g stroke-linecap="round"><g transform="translate(275.8935546875 206.1435546875) rotate(0 -39.610049323537396 5.318465092378233)"><path d="M-0.23 0.31 C-5.59 1.9, -20 10.49, -33.06 10.33 C-46.12 10.18, -70.88 1.31, -78.57 -0.63 M-1.81 -0.57 C-7.2 1.06, -20.91 11.04, -33.77 11.26 C-46.64 11.49, -71.47 2.72, -78.99 0.76" stroke="#c92a2a" stroke-width="1" fill="none"></path></g><g transform="translate(275.8935546875 206.1435546875) rotate(0 -39.610049323537396 5.318465092378233)"><path d="M-80.54 0.79 L-62.79 -1.23 L-68.1 11.69 L-79.4 -0.3" stroke="none" stroke-width="0" fill="#c92a2a" fill-rule="evenodd"></path><path d="M-78.6 1.32 C-77.16 1.13, -72.23 -0.1, -64.8 -1.09 M-79.33 0.75 C-75.19 -0.4, -71.28 -1.24, -64.17 -0.99 M-64.56 -1.49 C-63.68 2.06, -65.26 3.13, -67.13 11.77 M-63.76 -1.3 C-65.26 2.41, -66.69 6.98, -67.9 10.32 M-68.82 9.25 C-71.16 6.99, -74.8 5.74, -78.83 -0.43 M-67.02 10.89 C-71.68 6.66, -75.13 3.62, -78.61 0.85 M-78.99 0.76 C-78.99 0.76, -78.99 0.76, -78.99 0.76 M-78.99 0.76 C-78.99 0.76, -78.99 0.76, -78.99 0.76" stroke="#c92a2a" stroke-width="1" fill="none"></path></g></g><mask></mask><g transform="translate(345.7659989228637 149.03237171500268) rotate(0 28.439979553222656 9.600000000000023)"><text x="28.439979553222656" y="0" font-family="Virgil, Segoe UI Emoji" font-size="16px" fill="#c92a2a" text-anchor="middle" style="white-space: pre;" direction="ltr" dominant-baseline="text-before-edge">Update</text></g><g transform="translate(218.88585662841797 228.61479259665748) rotate(0 23.49597930908203 9.600000000000023)"><text x="23.49597930908203" y="0" font-family="Virgil, Segoe UI Emoji" font-size="16px" fill="#c92a2a" text-anchor="middle" style="white-space: pre;" direction="ltr" dominant-baseline="text-before-edge">Notify</text></g></svg>