<svg version="1.1" xmlns="http://www.w3.org/2000/svg" viewBox="0 0 1640 340" width="1640" height="340">
  <!-- svg-source:excalidraw -->
  
  <defs>
    <style class="style-fonts">
      @font-face {
        font-family: "Virgil";
        src: url("https://excalidraw.com/Virgil.woff2");
      }
      @font-face {
        font-family: "Cascadia";
        src: url("https://excalidraw.com/Cascadia.woff2");
      }
    </style>
  </defs>
  <g stroke-linecap="round" transform="translate(10 86.10000000000002) rotate(0 160 60)"><path d="M30 0 M30 0 C116.89 0, 203.79 0, 290 0 M30 0 C87.18 0, 144.36 0, 290 0 M290 0 C310 0, 320 10, 320 30 M290 0 C310 0, 320 10, 320 30 M320 30 C320 49.67, 320 69.34, 320 90 M320 30 C320 47.15, 320 64.31, 320 90 M320 90 C320 110, 310 120, 290 120 M320 90 C320 110, 310 120, 290 120 M290 120 C187.91 120, 85.81 120, 30 120 M290 120 C197.08 120, 104.15 120, 30 120 M30 120 C10 120, 0 110, 0 90 M30 120 C10 120, 0 110, 0 90 M0 90 C0 68.36, 0 46.72, 0 30 M0 90 C0 73.64, 0 57.29, 0 30 M0 30 C0 10, 10 0, 30 0 M0 30 C0 10, 10 0, 30 0" stroke="#000000" stroke-width="2" fill="none"></path></g><g transform="translate(59.9609375 125.39999999999998) rotate(0 110.0390625 20.69999999999999)"><text x="110.0390625" y="0" font-family="Helvetica, Segoe UI Emoji" font-size="36px" fill="#000000" text-anchor="middle" style="white-space: pre;" direction="ltr" dominant-baseline="text-before-edge">ProfileEdit.tsx</text></g><g stroke-linecap="round" transform="translate(970 46.10000000000002) rotate(0 80 80)"><path d="M160 80 C160 82.79, 159.85 85.59, 159.56 88.36 C159.27 91.13, 158.83 93.91, 158.25 96.63 C157.67 99.36, 156.95 102.07, 156.08 104.72 C155.22 107.37, 154.22 109.99, 153.08 112.54 C151.95 115.09, 150.68 117.59, 149.28 120 C147.89 122.41, 146.36 124.77, 144.72 127.02 C143.08 129.28, 141.32 131.46, 139.45 133.53 C137.59 135.6, 135.6 137.59, 133.53 139.45 C131.46 141.32, 129.28 143.08, 127.02 144.72 C124.77 146.36, 122.41 147.89, 120 149.28 C117.59 150.68, 115.09 151.95, 112.54 153.08 C109.99 154.22, 107.37 155.22, 104.72 156.08 C102.07 156.95, 99.36 157.67, 96.63 158.25 C93.91 158.83, 91.13 159.27, 88.36 159.56 C85.59 159.85, 82.79 160, 80 160 C77.21 160, 74.41 159.85, 71.64 159.56 C68.87 159.27, 66.09 158.83, 63.37 158.25 C60.64 157.67, 57.93 156.95, 55.28 156.08 C52.63 155.22, 50.01 154.22, 47.46 153.08 C44.91 151.95, 42.41 150.68, 40 149.28 C37.59 147.89, 35.23 146.36, 32.98 144.72 C30.72 143.08, 28.54 141.32, 26.47 139.45 C24.4 137.59, 22.41 135.6, 20.55 133.53 C18.68 131.46, 16.92 129.28, 15.28 127.02 C13.64 124.77, 12.11 122.41, 10.72 120 C9.32 117.59, 8.05 115.09, 6.92 112.54 C5.78 109.99, 4.78 107.37, 3.92 104.72 C3.05 102.07, 2.33 99.36, 1.75 96.63 C1.17 93.91, 0.73 91.13, 0.44 88.36 C0.15 85.59, 0 82.79, 0 80 C0 77.21, 0.15 74.41, 0.44 71.64 C0.73 68.87, 1.17 66.09, 1.75 63.37 C2.33 60.64, 3.05 57.93, 3.92 55.28 C4.78 52.63, 5.78 50.01, 6.92 47.46 C8.05 44.91, 9.32 42.41, 10.72 40 C12.11 37.59, 13.64 35.23, 15.28 32.98 C16.92 30.72, 18.68 28.54, 20.55 26.47 C22.41 24.4, 24.4 22.41, 26.47 20.55 C28.54 18.68, 30.72 16.92, 32.98 15.28 C35.23 13.64, 37.59 12.11, 40 10.72 C42.41 9.32, 44.91 8.05, 47.46 6.92 C50.01 5.78, 52.63 4.78, 55.28 3.92 C57.93 3.05, 60.64 2.33, 63.37 1.75 C66.09 1.17, 68.87 0.73, 71.64 0.44 C74.41 0.15, 77.21 0, 80 0 C82.79 0, 85.59 0.15, 88.36 0.44 C91.13 0.73, 93.91 1.17, 96.63 1.75 C99.36 2.33, 102.07 3.05, 104.72 3.92 C107.37 4.78, 109.99 5.78, 112.54 6.92 C115.09 8.05, 117.59 9.32, 120 10.72 C122.41 12.11, 124.77 13.64, 127.02 15.28 C129.28 16.92, 131.46 18.68, 133.53 20.55 C135.6 22.41, 137.59 24.4, 139.45 26.47 C141.32 28.54, 143.08 30.72, 144.72 32.98 C146.36 35.23, 147.89 37.59, 149.28 40 C150.68 42.41, 151.95 44.91, 153.08 47.46 C154.22 50.01, 155.22 52.63, 156.08 55.28 C156.95 57.93, 157.67 60.64, 158.25 63.37 C158.83 66.09, 159.27 68.87, 159.56 71.64 C159.85 74.41, 159.93 78.61, 160 80 C160.07 81.39, 160.07 78.61, 160 80" stroke="#000000" stroke-width="2" fill="none"></path></g><g transform="translate(1009.4627075050762 109.93145750507631) rotate(0 40.46875 16.100000000000023)"><text x="40.46875" y="0" font-family="Helvetica, Segoe UI Emoji" font-size="28px" fill="#000000" text-anchor="middle" style="white-space: pre;" direction="ltr" dominant-baseline="text-before-edge">Cache</text></g><g stroke-linecap="round" transform="translate(570 170) rotate(0 80 80)"><path d="M160 80 C160 82.79, 159.85 85.59, 159.56 88.36 C159.27 91.13, 158.83 93.91, 158.25 96.63 C157.67 99.36, 156.95 102.07, 156.08 104.72 C155.22 107.37, 154.22 109.99, 153.08 112.54 C151.95 115.09, 150.68 117.59, 149.28 120 C147.89 122.41, 146.36 124.77, 144.72 127.02 C143.08 129.28, 141.32 131.46, 139.45 133.53 C137.59 135.6, 135.6 137.59, 133.53 139.45 C131.46 141.32, 129.28 143.08, 127.02 144.72 C124.77 146.36, 122.41 147.89, 120 149.28 C117.59 150.68, 115.09 151.95, 112.54 153.08 C109.99 154.22, 107.37 155.22, 104.72 156.08 C102.07 156.95, 99.36 157.67, 96.63 158.25 C93.91 158.83, 91.13 159.27, 88.36 159.56 C85.59 159.85, 82.79 160, 80 160 C77.21 160, 74.41 159.85, 71.64 159.56 C68.87 159.27, 66.09 158.83, 63.37 158.25 C60.64 157.67, 57.93 156.95, 55.28 156.08 C52.63 155.22, 50.01 154.22, 47.46 153.08 C44.91 151.95, 42.41 150.68, 40 149.28 C37.59 147.89, 35.23 146.36, 32.98 144.72 C30.72 143.08, 28.54 141.32, 26.47 139.45 C24.4 137.59, 22.41 135.6, 20.55 133.53 C18.68 131.46, 16.92 129.28, 15.28 127.02 C13.64 124.77, 12.11 122.41, 10.72 120 C9.32 117.59, 8.05 115.09, 6.92 112.54 C5.78 109.99, 4.78 107.37, 3.92 104.72 C3.05 102.07, 2.33 99.36, 1.75 96.63 C1.17 93.91, 0.73 91.13, 0.44 88.36 C0.15 85.59, 0 82.79, 0 80 C0 77.21, 0.15 74.41, 0.44 71.64 C0.73 68.87, 1.17 66.09, 1.75 63.37 C2.33 60.64, 3.05 57.93, 3.92 55.28 C4.78 52.63, 5.78 50.01, 6.92 47.46 C8.05 44.91, 9.32 42.41, 10.72 40 C12.11 37.59, 13.64 35.23, 15.28 32.98 C16.92 30.72, 18.68 28.54, 20.55 26.47 C22.41 24.4, 24.4 22.41, 26.47 20.55 C28.54 18.68, 30.72 16.92, 32.98 15.28 C35.23 13.64, 37.59 12.11, 40 10.72 C42.41 9.32, 44.91 8.05, 47.46 6.92 C50.01 5.78, 52.63 4.78, 55.28 3.92 C57.93 3.05, 60.64 2.33, 63.37 1.75 C66.09 1.17, 68.87 0.73, 71.64 0.44 C74.41 0.15, 77.21 0, 80 0 C82.79 0, 85.59 0.15, 88.36 0.44 C91.13 0.73, 93.91 1.17, 96.63 1.75 C99.36 2.33, 102.07 3.05, 104.72 3.92 C107.37 4.78, 109.99 5.78, 112.54 6.92 C115.09 8.05, 117.59 9.32, 120 10.72 C122.41 12.11, 124.77 13.64, 127.02 15.28 C129.28 16.92, 131.46 18.68, 133.53 20.55 C135.6 22.41, 137.59 24.4, 139.45 26.47 C141.32 28.54, 143.08 30.72, 144.72 32.98 C146.36 35.23, 147.89 37.59, 149.28 40 C150.68 42.41, 151.95 44.91, 153.08 47.46 C154.22 50.01, 155.22 52.63, 156.08 55.28 C156.95 57.93, 157.67 60.64, 158.25 63.37 C158.83 66.09, 159.27 68.87, 159.56 71.64 C159.85 74.41, 159.93 78.61, 160 80 C160.07 81.39, 160.07 78.61, 160 80" stroke="#000000" stroke-width="2" fill="none"></path></g><g transform="translate(603.2630004738262 231.70838058199922) rotate(0 46.66845703125 18.223076923076917)"><text x="46.66845703125" y="0" font-family="Helvetica, Segoe UI Emoji" font-size="31.692307692307693px" fill="#000000" text-anchor="middle" style="white-space: pre;" direction="ltr" dominant-baseline="text-before-edge">Server</text></g><g mask="url(#mask-pjeLYo3G54xH79Q3ELEtX)" stroke-linecap="round"><g transform="translate(297.06306306306305 85.10000000000002) rotate(0 336.4684684684685 -29.00021065051868)"><path d="M0 0 C58.82 -9.83, 240.78 -59.17, 352.94 -59 C465.09 -58.83, 619.6 -9, 672.94 1 M0 0 C58.82 -9.83, 240.78 -59.17, 352.94 -59 C465.09 -58.83, 619.6 -9, 672.94 1" stroke="#000000" stroke-width="2" fill="none"></path></g><g transform="translate(297.06306306306305 85.10000000000002) rotate(0 336.4684684684685 -29.00021065051868)"><path d="M643.12 4.32 C653.59 3.16, 664.05 1.99, 672.94 1 M643.12 4.32 C654.46 3.06, 665.79 1.8, 672.94 1" stroke="#000000" stroke-width="2" fill="none"></path></g><g transform="translate(297.06306306306305 85.10000000000002) rotate(0 336.4684684684685 -29.00021065051868)"><path d="M647.96 -15.62 C656.73 -9.79, 665.49 -3.95, 672.94 1 M647.96 -15.62 C657.46 -9.3, 666.95 -2.98, 672.94 1" stroke="#000000" stroke-width="2" fill="none"></path></g></g><mask id="mask-pjeLYo3G54xH79Q3ELEtX"><rect x="0" y="0" fill="#fff" width="1070" height="245.10000000000002"></rect><rect x="531.73828125" y="10" fill="#000" width="236.5234375" height="32.199999999999996" opacity="1"></rect></mask><g transform="translate(531.73828125 10) rotate(0 101.79325028153153 46.09978934948134)"><text x="118.26171875" y="0" font-family="Helvetica, Segoe UI Emoji" font-size="28px" fill="#000000" text-anchor="middle" style="white-space: pre;" direction="ltr" dominant-baseline="text-before-edge"> Optimistic Update </text></g><g mask="url(#mask-8VNcyM8wvrSTjwuRIuy6z)" stroke-linecap="round"><g transform="translate(333.8478962181939 206.73536973016496) rotate(0 117.61713871768143 23.456142111830673)"><path d="M0 0 C39.21 7.82, 196.03 39.09, 235.23 46.91 M0 0 C39.21 7.82, 196.03 39.09, 235.23 46.91" stroke="#000000" stroke-width="2" fill="none"></path></g><g transform="translate(333.8478962181939 206.73536973016496) rotate(0 117.61713871768143 23.456142111830673)"><path d="M205.58 51.46 C213.78 50.2, 221.97 48.95, 235.23 46.91 M205.58 51.46 C215.64 49.92, 225.7 48.37, 235.23 46.91" stroke="#000000" stroke-width="2" fill="none"></path></g><g transform="translate(333.8478962181939 206.73536973016496) rotate(0 117.61713871768143 23.456142111830673)"><path d="M209.59 31.34 C216.68 35.64, 223.77 39.95, 235.23 46.91 M209.59 31.34 C218.29 36.62, 226.99 41.9, 235.23 46.91" stroke="#000000" stroke-width="2" fill="none"></path></g></g><mask id="mask-8VNcyM8wvrSTjwuRIuy6z"><rect x="0" y="0" fill="#fff" width="669.0821736535568" height="353.6476539538263"></rect><rect x="413.33417556087534" y="214.0915118419956" fill="#000" width="76.26171875" height="32.199999999999996" opacity="1"></rect></mask><g transform="translate(413.33417556087534 214.0915118419956) rotate(0 38.130859375 16.100000000000023)"><text x="38.130859375" y="0" font-family="Helvetica, Segoe UI Emoji" font-size="28px" fill="#000000" text-anchor="middle" style="white-space: pre;" direction="ltr" dominant-baseline="text-before-edge"> fetch </text></g><g mask="url(#mask-mY7wKNq4r8gUT4urGuZAe)" stroke-linecap="round"><g transform="translate(730 250) rotate(0 128.5392924918001 -31.437275062959543)"><path d="M0 0 C42.85 -10.48, 214.23 -52.4, 257.08 -62.87 M0 0 C42.85 -10.48, 214.23 -52.4, 257.08 -62.87" stroke="#000000" stroke-width="2" fill="none"></path></g><g transform="translate(730 250) rotate(0 128.5392924918001 -31.437275062959543)"><path d="M232.13 -46.21 C241.05 -52.16, 249.96 -58.12, 257.08 -62.87 M232.13 -46.21 C239.79 -51.32, 247.44 -56.44, 257.08 -62.87" stroke="#000000" stroke-width="2" fill="none"></path></g><g transform="translate(730 250) rotate(0 128.5392924918001 -31.437275062959543)"><path d="M227.26 -66.14 C237.91 -64.98, 248.57 -63.81, 257.08 -62.87 M227.26 -66.14 C236.41 -65.14, 245.56 -64.14, 257.08 -62.87" stroke="#000000" stroke-width="2" fill="none"></path></g></g><mask id="mask-mY7wKNq4r8gUT4urGuZAe"><rect x="0" y="0" fill="#fff" width="1087.0785849836002" height="412.8745501259191"></rect><rect x="807.9396831168001" y="202.46272493704055" fill="#000" width="101.19921875" height="32.199999999999996" opacity="1"></rect></mask><g transform="translate(807.9396831168001 202.46272493704055) rotate(0 50.599609375 16.100000000000023)"><text x="50.599609375" y="0" font-family="Helvetica, Segoe UI Emoji" font-size="28px" fill="#000000" text-anchor="middle" style="white-space: pre;" direction="ltr" dominant-baseline="text-before-edge"> update </text></g><g stroke-linecap="round" transform="translate(1350 70) rotate(0 140 60)"><path d="M30 0 M30 0 C94.96 0, 159.92 0, 250 0 M30 0 C106.51 0, 183.02 0, 250 0 M250 0 C270 0, 280 10, 280 30 M250 0 C270 0, 280 10, 280 30 M280 30 C280 50.53, 280 71.06, 280 90 M280 30 C280 50.14, 280 70.28, 280 90 M280 90 C280 110, 270 120, 250 120 M280 90 C280 110, 270 120, 250 120 M250 120 C164.96 120, 79.92 120, 30 120 M250 120 C173.46 120, 96.92 120, 30 120 M30 120 C10 120, 0 110, 0 90 M30 120 C10 120, 0 110, 0 90 M0 90 C0 73.58, 0 57.15, 0 30 M0 90 C0 73.91, 0 57.82, 0 30 M0 30 C0 10, 10 0, 30 0 M0 30 C0 10, 10 0, 30 0" stroke="#000000" stroke-width="2" fill="none"></path></g><g transform="translate(1410.9775390625 109.29999999999995) rotate(0 79.0224609375 20.69999999999999)"><text x="79.0224609375" y="0" font-family="Helvetica, Segoe UI Emoji" font-size="36px" fill="#000000" text-anchor="middle" style="white-space: pre;" direction="ltr" dominant-baseline="text-before-edge">Profile.tsx</text></g><g mask="url(#mask-fdZwRoZp8WmbhuCcAp1O1)" stroke-linecap="round"><g transform="translate(1130 126.10000000000002) rotate(0 110 0)"><path d="M0 0 C36.67 0, 183.33 0, 220 0 M0 0 C36.67 0, 183.33 0, 220 0" stroke="#000000" stroke-width="2" fill="none"></path></g><g transform="translate(1130 126.10000000000002) rotate(0 110 0)"><path d="M191.81 10.26 C202.32 6.43, 212.83 2.61, 220 0 M191.81 10.26 C202.08 6.52, 212.34 2.79, 220 0" stroke="#000000" stroke-width="2" fill="none"></path></g><g transform="translate(1130 126.10000000000002) rotate(0 110 0)"><path d="M191.81 -10.26 C202.32 -6.43, 212.83 -2.61, 220 0 M191.81 -10.26 C202.08 -6.52, 212.34 -2.79, 220 0" stroke="#000000" stroke-width="2" fill="none"></path></g></g><mask id="mask-fdZwRoZp8WmbhuCcAp1O1"><rect x="0" y="0" fill="#fff" width="1450" height="226.10000000000002"></rect><rect x="1189.400390625" y="110" fill="#000" width="101.19921875" height="32.199999999999996" opacity="1"></rect></mask><g transform="translate(1189.400390625 110) rotate(0 50.599609375 16.100000000000023)"><text x="50.599609375" y="0" font-family="Helvetica, Segoe UI Emoji" font-size="28px" fill="#000000" text-anchor="middle" style="white-space: pre;" direction="ltr" dominant-baseline="text-before-edge"> update </text></g></svg>