<svg version="1.1" xmlns="http://www.w3.org/2000/svg" viewBox="0 0 477.193359375 242.5621864665261" width="477.193359375" height="242.5621864665261" filter="invert(93%) hue-rotate(180deg)">
  <!-- svg-source:excalidraw -->
  
  <defs>
    <style class="style-fonts">
      @font-face {
        font-family: "Virgil";
        src: url("https://excalidraw.com/Virgil.woff2");
      }
      @font-face {
        font-family: "Cascadia";
        src: url("https://excalidraw.com/Cascadia.woff2");
      }
    </style>
  </defs>
  <g stroke-linecap="round"><g stroke-opacity="0.3" fill-opacity="0.3" transform="translate(290.79862346471623 123.45039255273377) rotate(0 -0.05671112903644371 27.862980569774777)"><path d="M-0.45 -0.01 C-0.5 9.35, 0.25 46.32, 0.34 55.74" stroke="#000000" stroke-width="1.5" fill="none" stroke-dasharray="8 9"></path></g></g><mask></mask><g stroke-linecap="round" transform="translate(327.27734375 10) rotate(0 12.287109375 12.287109375)"><path d="M17.89 0.05 C20.55 1.11, 22.89 4.69, 24 7.18 C25.1 9.67, 25.34 12.44, 24.51 14.97 C23.67 17.51, 21.1 20.76, 19.01 22.39 C16.92 24.01, 14.59 25.02, 11.98 24.7 C9.37 24.39, 5.29 22.34, 3.33 20.49 C1.37 18.64, 0.29 16.03, 0.23 13.59 C0.17 11.14, 1.39 7.95, 2.96 5.81 C4.53 3.68, 7.34 1.45, 9.64 0.77 C11.95 0.1, 15.34 1.59, 16.79 1.76 C18.25 1.94, 18.26 1.78, 18.36 1.82 M10.3 -0.65 C13.2 -0.78, 18.38 2.11, 20.67 3.62 C22.95 5.13, 23.66 6.27, 24.02 8.41 C24.39 10.55, 24.05 13.86, 22.84 16.44 C21.63 19.03, 18.81 22.54, 16.78 23.92 C14.75 25.3, 12.89 25.36, 10.67 24.72 C8.44 24.07, 5.14 22.17, 3.41 20.04 C1.68 17.91, 0.08 14.52, 0.28 11.94 C0.47 9.37, 2.9 6.77, 4.57 4.6 C6.23 2.43, 9.05 -0.36, 10.26 -1.08 C11.47 -1.79, 11.59 -0.02, 11.84 0.3" stroke="#000000" stroke-width="1" fill="none"></path></g><g stroke-linecap="round" transform="translate(271.84765625 89.8125) rotate(0 15.5 15)"><path d="M1.06 8.87 C1.06 8.87, 1.06 8.87, 1.06 8.87 M1.06 8.87 C1.06 8.87, 1.06 8.87, 1.06 8.87 M0.56 14.34 C5.62 10.23, 8.79 7.57, 9.93 4.48 M1.4 14.42 C4.69 11.62, 7.77 7.36, 10.47 4.14 M2.63 22.91 C7.78 14.46, 13.74 7.71, 16.56 3.35 M0.27 20.02 C5.05 15.42, 10.69 9.58, 16.92 2.87 M4.18 25.37 C8.95 18.89, 16.88 9.2, 19.94 2.35 M3.59 24.57 C8.29 17.45, 14.26 11.43, 22.78 2.8 M3.99 26.84 C14.74 19.44, 20.56 11.33, 26.62 3.62 M5.04 27.77 C12.74 18.72, 19.48 10.93, 25.93 4.5 M7.41 31.98 C12.03 25.28, 18.93 19.11, 27.9 8.25 M8.03 29.66 C16.17 23.51, 21.56 14.8, 29.36 6.44 M12.95 32.26 C19.41 23.51, 26.21 14.86, 30.25 12.78 M13.22 30.4 C19.38 23.48, 27.4 16.58, 30.43 11.8 M17.26 31.66 C23.74 26.14, 29.71 21.3, 32.16 17.37 M18.16 32.34 C20.61 28.85, 25.21 24.53, 32.27 14.97" stroke="#868e96" stroke-width="0.5" fill="none"></path><path d="M7.28 2.52 C10.2 0.82, 15.8 0.14, 19.19 0.57 C22.58 1, 25.62 2.54, 27.63 5.08 C29.65 7.63, 31.35 12.62, 31.28 15.85 C31.2 19.08, 29.57 22.1, 27.17 24.45 C24.77 26.81, 20.23 29.28, 16.88 29.99 C13.54 30.7, 9.74 30.27, 7.09 28.7 C4.44 27.14, 1.93 23.96, 0.98 20.59 C0.02 17.23, -0.28 11.77, 1.36 8.53 C3 5.28, 8.93 2.42, 10.81 1.14 C12.68 -0.14, 12.65 0.69, 12.6 0.85 M9.13 2.43 C12.26 1.26, 18.71 -0.02, 21.87 0.67 C25.04 1.36, 26.77 3.93, 28.1 6.56 C29.44 9.2, 30.16 12.93, 29.86 16.46 C29.56 19.99, 28.52 25.28, 26.29 27.73 C24.05 30.18, 19.73 31.26, 16.43 31.14 C13.13 31.01, 9.06 28.99, 6.48 26.97 C3.9 24.94, 1.56 22.33, 0.96 19 C0.35 15.66, 1.55 9.83, 2.84 6.95 C4.13 4.07, 7.52 2.57, 8.71 1.72 C9.89 0.87, 9.74 1.84, 9.95 1.85" stroke="#495057" stroke-width="1" fill="none"></path></g><g stroke-linecap="round" transform="translate(64.615234375 11.568359375) rotate(0 12.287109375 12.287109375)"><path d="M7.03 1.23 C8.95 -0.07, 11.88 -0.03, 14.46 0.62 C17.03 1.27, 20.9 3.17, 22.48 5.1 C24.07 7.04, 24.16 9.65, 23.98 12.23 C23.79 14.8, 22.91 18.44, 21.36 20.52 C19.81 22.61, 17.16 24.33, 14.68 24.71 C12.2 25.08, 8.98 24.18, 6.48 22.78 C3.97 21.39, 0.52 18.88, -0.35 16.33 C-1.22 13.78, -0.22 10.17, 1.27 7.5 C2.77 4.83, 7.19 1.61, 8.62 0.31 C10.06 -0.99, 9.87 -0.45, 9.88 -0.3 M9.33 -0.29 C11.39 -1.42, 14.94 -1.04, 17.18 0.34 C19.42 1.71, 21.4 5.27, 22.79 7.94 C24.18 10.61, 25.98 13.8, 25.54 16.34 C25.11 18.88, 22.6 21.72, 20.19 23.19 C17.78 24.66, 13.74 25.39, 11.11 25.14 C8.47 24.89, 6.37 23.89, 4.38 21.68 C2.39 19.47, -0.65 14.67, -0.86 11.88 C-1.07 9.1, 1.3 6.96, 3.1 4.96 C4.91 2.96, 9.02 0.67, 9.97 -0.12 C10.93 -0.9, 8.92 0, 8.84 0.25" stroke="#000000" stroke-width="1" fill="none"></path></g><g stroke-linecap="round" transform="translate(10 97.90234375) rotate(0 12.287109375 12.287109375)"><path d="M16.78 0.21 C19.13 1.01, 22.13 4.48, 23.41 6.82 C24.69 9.16, 25.18 11.69, 24.46 14.23 C23.74 16.77, 21.22 20.2, 19.1 22.09 C16.97 23.97, 14.16 25.5, 11.69 25.55 C9.23 25.6, 6.2 24.45, 4.31 22.39 C2.42 20.33, 0.68 15.89, 0.36 13.17 C0.04 10.45, 1.01 8.12, 2.38 6.07 C3.74 4.02, 6.1 1.73, 8.54 0.87 C10.98 0.01, 15.63 0.81, 17.04 0.91 C18.45 1.02, 17.13 1.36, 17.01 1.5 M17.18 0.69 C19.08 1.56, 21.37 3.88, 22.6 6.64 C23.84 9.41, 25.09 14.45, 24.59 17.29 C24.08 20.13, 21.76 22.45, 19.58 23.69 C17.4 24.93, 14.11 25.05, 11.51 24.73 C8.91 24.4, 5.76 23.85, 4 21.74 C2.25 19.64, 1.42 14.81, 0.97 12.13 C0.52 9.44, -0.11 7.51, 1.3 5.63 C2.71 3.76, 6.78 1.69, 9.45 0.86 C12.13 0.03, 16.03 0.57, 17.35 0.65 C18.67 0.72, 17.41 1.07, 17.37 1.31" stroke="#000000" stroke-width="1" fill="none"></path></g><g stroke-linecap="round" transform="translate(118.9765625 97.69140625) rotate(0 12.287109375 12.287109375)"><path d="M14.51 0.63 C16.99 1.1, 20.93 3.2, 22.51 5.14 C24.09 7.08, 24.17 9.71, 23.97 12.28 C23.78 14.85, 22.88 18.49, 21.32 20.56 C19.77 22.63, 17.11 24.35, 14.63 24.71 C12.15 25.08, 8.93 24.16, 6.43 22.76 C3.94 21.35, 0.49 18.83, -0.36 16.28 C-1.22 13.73, 0.05 10.01, 1.29 7.45 C2.54 4.9, 4.54 2.18, 7.09 0.95 C9.63 -0.28, 14.73 0.05, 16.56 0.09 C18.38 0.13, 18.17 0.72, 18.05 1.19 M17.35 0.42 C19.53 1.63, 21.51 5.43, 22.87 8.11 C24.22 10.8, 25.96 13.99, 25.49 16.52 C25.02 19.05, 22.46 21.86, 20.03 23.29 C17.6 24.73, 13.55 25.41, 10.92 25.12 C8.29 24.82, 6.21 23.77, 4.25 21.54 C2.29 19.3, -0.7 14.48, -0.87 11.69 C-1.04 8.9, 1.38 6.78, 3.22 4.81 C5.06 2.83, 7.81 0.46, 10.16 -0.16 C12.51 -0.78, 16.06 0.8, 17.3 1.07 C18.55 1.34, 17.67 1.36, 17.63 1.47" stroke="#000000" stroke-width="1" fill="none"></path></g><g stroke-linecap="round"><g transform="translate(72.990234375 36.369140625) rotate(0 -22.30062241670214 31.07012382962739)"><path d="M0.57 0.3 C-6.61 10.41, -36.79 51.2, -44.17 61.62 M-0.59 -0.6 C-7.83 9.58, -37.88 52.52, -45.17 62.74" stroke="#000000" stroke-width="1" fill="none"></path></g></g><mask></mask><g stroke-linecap="round"><g transform="translate(81.111328125 36.412109375) rotate(0 22.32366795520295 31.766028530620986)"><path d="M0.3 -0.09 C7.37 10.6, 35.99 53.95, 43.37 64.72 M-1.01 -1.19 C6.37 9.08, 38.15 51.59, 45.66 62.78" stroke="#000000" stroke-width="1" fill="none"></path></g></g><mask></mask><g stroke-linecap="round"><g transform="translate(139.162109375 121.392578125) rotate(0 15.451839263620741 29.411962393671274)"><path d="M-0.09 -0.81 C5.23 9.08, 27.1 49.74, 32.5 59.63 M-1.6 1.38 C3.54 10.88, 26.19 48.03, 31.74 57.72" stroke="#000000" stroke-width="1" fill="none"></path></g></g><mask></mask><g stroke-linecap="round" transform="translate(164.693359375 180.609375) rotate(0 15.5 15)"><path d="M6.8 1.94 C6.8 1.94, 6.8 1.94, 6.8 1.94 M6.8 1.94 C6.8 1.94, 6.8 1.94, 6.8 1.94 M3.96 11.98 C5.78 9.83, 9.78 7.15, 11.85 1.92 M3.48 12.65 C6.02 10.08, 7.38 7.8, 13.02 0.89 M-0.47 18.92 C4.16 13.27, 10.58 9.37, 17.03 2.42 M0.44 21.08 C5.49 16.04, 9.5 12.53, 17.2 0.15 M4.93 23.46 C9.21 16.59, 12.11 12.5, 20.96 4.72 M3.18 22.43 C8.13 18.57, 13.39 12.31, 22.23 3.52 M4.85 25.02 C10.69 21.45, 12.82 15.9, 23.6 6.29 M5.63 26.01 C11.94 20.81, 15.69 16.74, 24.4 4.95 M10.13 27.58 C15.09 22.78, 25.03 12.39, 27.8 7.67 M10.07 28.91 C14.94 23.5, 18.96 18.29, 27.62 7.15 M11.84 29.11 C19.44 21.13, 26.77 16.69, 31.98 10.54 M13.59 30.01 C19.74 23.46, 26.15 16.72, 30.93 11.71 M18.89 29.93 C25.22 22.97, 30.24 20.22, 32.21 16.23 M20.15 30.79 C22.98 28.1, 24.29 24.48, 31.33 16.11" stroke="#868e96" stroke-width="0.5" fill="none"></path><path d="M17.29 0.35 C20.38 0.93, 24.78 3.67, 27.1 6.25 C29.42 8.83, 31.12 12.93, 31.22 15.84 C31.31 18.74, 29.75 21.33, 27.68 23.69 C25.62 26.06, 22.12 29.25, 18.83 30.02 C15.54 30.79, 10.97 29.97, 7.93 28.31 C4.9 26.65, 1.94 23.11, 0.64 20.05 C-0.65 16.98, -0.93 12.98, 0.15 9.91 C1.22 6.83, 3.64 2.98, 7.09 1.6 C10.55 0.21, 18.47 1.67, 20.88 1.59 C23.29 1.52, 21.86 1.17, 21.56 1.14 M12.08 1.64 C15.1 0.47, 19.72 0.32, 22.75 1.67 C25.77 3.01, 28.78 7, 30.22 9.73 C31.66 12.47, 32.57 15.01, 31.41 18.06 C30.24 21.1, 26.1 25.93, 23.21 28 C20.33 30.07, 17.29 30.98, 14.09 30.47 C10.9 29.95, 6.44 27.32, 4.05 24.91 C1.66 22.51, -0.04 19.18, -0.27 16.04 C-0.49 12.89, 0.86 8.59, 2.69 6.02 C4.53 3.45, 9.45 1.7, 10.74 0.62 C12.03 -0.47, 10.04 -0.82, 10.42 -0.48" stroke="#495057" stroke-width="1" fill="none"></path></g><g stroke-linecap="round" transform="translate(261.802734375 163.876953125) rotate(0 102.6953125 34.34261667076305)"><path d="M17.17 0 M17.17 0 C81.71 -0.6, 148.49 -2.85, 188.22 0 M17.17 0 C59.18 -0.11, 99.72 -0.69, 188.22 0 M188.22 0 C201.57 0.13, 203.47 6.49, 205.39 17.17 M188.22 0 C199.29 -0.22, 205.83 6.2, 205.39 17.17 M205.39 17.17 C205.36 24.61, 204.55 37.61, 205.39 51.51 M205.39 17.17 C205.4 25.69, 205.71 33.15, 205.39 51.51 M205.39 51.51 C203.4 64.03, 199.89 68.08, 188.22 68.69 M205.39 51.51 C206.71 63.58, 201.34 66.8, 188.22 68.69 M188.22 68.69 C145.46 68.66, 104.21 67.75, 17.17 68.69 M188.22 68.69 C126.61 70.24, 63.76 70.01, 17.17 68.69 M17.17 68.69 C5.55 69.82, 1.86 63.81, 0 51.51 M17.17 68.69 C6.16 68.55, -1.21 63.95, 0 51.51 M0 51.51 C-0.04 37.66, 1.03 25.42, 0 17.17 M0 51.51 C0.17 40.61, -0.18 30.4, 0 17.17 M0 17.17 C1.95 4.7, 5.97 1.32, 17.17 0 M0 17.17 C-0.08 4.44, 4.96 1.43, 17.17 0" stroke="#000000" stroke-width="1" fill="none"></path></g><g stroke-linecap="round" transform="translate(277.435546875 181.705078125) rotate(0 15.5 15)"><path d="M19.5 1.47 C22.63 2.05, 27.19 4.26, 29.04 6.83 C30.89 9.4, 31.2 13.58, 30.6 16.88 C30 20.18, 27.91 24.29, 25.42 26.63 C22.92 28.97, 18.73 30.72, 15.65 30.9 C12.57 31.08, 9.57 29.76, 6.92 27.72 C4.26 25.69, 0.74 22.03, -0.28 18.69 C-1.3 15.36, -0.83 10.74, 0.77 7.72 C2.37 4.71, 5.38 1.61, 9.32 0.61 C13.26 -0.39, 21.53 1.12, 24.43 1.74 C27.32 2.36, 27.13 3.89, 26.69 4.3 M12.88 -0.75 C15.96 -1.52, 21.51 0.71, 24.42 2.6 C27.34 4.49, 29.39 7.61, 30.39 10.6 C31.39 13.58, 31.41 17.67, 30.43 20.5 C29.44 23.33, 27.55 26.04, 24.47 27.57 C21.39 29.1, 15.28 30.05, 11.94 29.68 C8.6 29.31, 6.65 27.54, 4.42 25.37 C2.18 23.19, -1.24 20.17, -1.46 16.64 C-1.67 13.11, 0.63 7.02, 3.12 4.19 C5.61 1.36, 11.83 0.27, 13.47 -0.34 C15.1 -0.96, 13.18 0.11, 12.92 0.5" stroke="#000000" stroke-width="1" fill="none"></path></g><g transform="translate(287.59954833984375 186.705078125) rotate(0 5.33599853515625 9.600000000000023)"><text x="5.33599853515625" y="0" font-family="Virgil, Segoe UI Emoji" font-size="16px" fill="#000000" text-anchor="middle" style="white-space: pre;" direction="ltr" dominant-baseline="text-before-edge">a</text></g><g stroke-linecap="round"><g stroke-opacity="0.3" fill-opacity="0.3" transform="translate(200.18685394968134 196.26348211380173) rotate(0 34.80730356656102 0.5439568360060321)"><path d="M-0.23 0.33 C11.37 0.38, 58.31 0.64, 69.84 0.76" stroke="#000000" stroke-width="1.5" fill="none" stroke-dasharray="8 9"></path></g></g><mask></mask><g stroke-linecap="round"><g transform="translate(332.23587527474797 35.03619861324387) rotate(0 -18.298252082794647 28.010601991954218)"><path d="M0.1 0.83 C-5.66 10.05, -29.67 46.96, -35.52 55.8 M-1.31 0.22 C-7.17 9.07, -30.95 45.07, -36.69 54.14" stroke="#000000" stroke-width="1" fill="none"></path></g></g><mask></mask><g stroke-linecap="round" transform="translate(324.908203125 183.068359375) rotate(0 15.5 15)"><path d="M10.12 0.23 C13.15 -0.85, 17.94 0.2, 21.27 1.68 C24.6 3.15, 28.56 6.34, 30.09 9.07 C31.63 11.8, 31.4 14.99, 30.49 18.05 C29.58 21.12, 27.24 25.65, 24.63 27.48 C22.02 29.31, 17.96 29.19, 14.82 29.06 C11.69 28.93, 8.27 28.78, 5.83 26.71 C3.39 24.63, 0.88 20.09, 0.18 16.62 C-0.52 13.15, -0.9 8.79, 1.62 5.89 C4.15 2.99, 12.56 0.06, 15.33 -0.77 C18.1 -1.6, 18.32 0.66, 18.24 0.92 M19.72 1.87 C22.6 2.59, 26.73 3.88, 28.48 6.51 C30.24 9.13, 30.47 14.26, 30.24 17.61 C30.01 20.97, 29.2 24.56, 27.11 26.65 C25.01 28.74, 21 29.91, 17.65 30.14 C14.31 30.37, 9.81 30.07, 7.04 28.03 C4.28 26, 1.74 21.13, 1.08 17.94 C0.42 14.75, 1.79 11.74, 3.09 8.87 C4.38 6, 5.87 2.3, 8.84 0.69 C11.81 -0.91, 19.07 -0.53, 20.92 -0.75 C22.77 -0.96, 20.31 -0.97, 19.94 -0.61" stroke="#000000" stroke-width="1" fill="none"></path></g><g transform="translate(336.3442077636719 188.068359375) rotate(0 4.063995361328125 9.600000000000023)"><text x="4.063995361328125" y="0" font-family="Virgil, Segoe UI Emoji" font-size="16px" fill="#000000" text-anchor="middle" style="white-space: pre;" direction="ltr" dominant-baseline="text-before-edge">b</text></g><g stroke-linecap="round" transform="translate(371.931640625 182.798828125) rotate(0 15.5 15)"><path d="M13.97 0.66 C17.17 0.55, 21.78 1.63, 24.53 3.54 C27.28 5.45, 29.58 9.12, 30.48 12.11 C31.39 15.1, 31.45 18.69, 29.96 21.48 C28.46 24.28, 24.6 27.59, 21.53 28.89 C18.45 30.19, 14.79 30.37, 11.51 29.28 C8.22 28.18, 3.86 24.87, 1.8 22.33 C-0.26 19.79, -1.36 16.96, -0.84 14.03 C-0.33 11.09, 1.91 6.96, 4.89 4.71 C7.87 2.45, 14.32 1.24, 17.03 0.5 C19.75 -0.25, 21.2 -0.09, 21.16 0.23 M8.98 2.57 C11.72 0.65, 15.57 -1.44, 18.83 -0.96 C22.1 -0.49, 26.53 2.8, 28.57 5.41 C30.6 8.01, 31.29 11.35, 31.04 14.65 C30.79 17.95, 29.03 22.57, 27.06 25.2 C25.09 27.83, 22.52 29.79, 19.23 30.45 C15.94 31.11, 10.48 30.91, 7.33 29.16 C4.18 27.4, 1.33 23.27, 0.34 19.9 C-0.65 16.53, 0.05 11.95, 1.41 8.94 C2.77 5.93, 7.19 2.94, 8.51 1.83 C9.83 0.72, 9.27 1.85, 9.33 2.28" stroke="#000000" stroke-width="1" fill="none"></path></g><g transform="translate(383.41564178466797 187.798828125) rotate(0 4.015998840332031 9.600000000000023)"><text x="4.015998840332031" y="0" font-family="Virgil, Segoe UI Emoji" font-size="16px" fill="#000000" text-anchor="middle" style="white-space: pre;" direction="ltr" dominant-baseline="text-before-edge">c</text></g><g stroke-linecap="round" transform="translate(417.537109375 183.240234375) rotate(0 15.5 15)"><path d="M21.28 0.43 C24.08 1.34, 26.85 4.36, 28.54 7.41 C30.23 10.46, 31.94 15.64, 31.41 18.74 C30.87 21.84, 28.1 24, 25.34 26 C22.58 27.99, 18.11 30.75, 14.83 30.7 C11.56 30.65, 8.1 27.93, 5.71 25.68 C3.32 23.42, 1.15 20.21, 0.51 17.17 C-0.13 14.13, 0.12 10.26, 1.87 7.43 C3.63 4.61, 7.53 1.04, 11.04 0.21 C14.56 -0.63, 21.09 2.07, 22.99 2.41 C24.89 2.74, 22.74 2.27, 22.45 2.22 M10.09 -0.79 C13.17 -2.07, 19.94 -1.03, 23.09 0.3 C26.25 1.63, 27.58 3.96, 29.02 7.21 C30.45 10.46, 32.21 16.53, 31.7 19.81 C31.2 23.09, 28.76 25.4, 25.99 26.9 C23.23 28.4, 18.53 28.87, 15.1 28.82 C11.68 28.78, 7.87 28.76, 5.47 26.63 C3.06 24.51, 1.33 19.35, 0.66 16.06 C-0.01 12.78, -0.1 9.7, 1.45 6.92 C2.99 4.15, 8.03 0.27, 9.92 -0.57 C11.81 -1.41, 12.58 1.68, 12.76 1.88" stroke="#000000" stroke-width="1" fill="none"></path></g><g transform="translate(428.48511505126953 188.240234375) rotate(0 4.551994323730469 9.600000000000023)"><text x="4.551994323730469" y="0" font-family="Virgil, Segoe UI Emoji" font-size="16px" fill="#000000" text-anchor="middle" style="white-space: pre;" direction="ltr" dominant-baseline="text-before-edge">d</text></g></svg>